<svg id="svg" version="1.1" width="950" height="500" xmlns="http://www.w3.org/2000/svg" xmlns:xlink="http://www.w3.org/1999/xlink" style="display: block;"><g id="svgg"><path id="path0" d="M208.511 21.038 C 192.947 31.198,173.415 43.944,165.106 49.362 C 156.798 54.780,144.926 62.540,138.723 66.606 C 132.521 70.671,125.628 75.167,123.404 76.595 C 121.181 78.024,114.623 82.295,108.832 86.086 C 103.040 89.877,93.753 95.944,88.193 99.567 C 82.634 103.191,69.181 111.970,58.298 119.077 C 47.415 126.183,36.021 133.623,32.979 135.609 C 29.936 137.595,23.665 141.693,19.043 144.716 L 10.638 150.211 10.638 202.172 C 10.638 248.493,10.709 254.107,11.285 253.885 C 11.892 253.653,17.757 249.896,51.683 228.013 C 59.183 223.176,67.904 217.564,71.064 215.543 C 76.238 212.234,92.004 202.079,137.336 172.858 C 145.583 167.541,155.170 161.372,158.641 159.149 C 164.089 155.659,184.582 142.456,201.901 131.277 C 204.802 129.404,213.887 123.564,222.091 118.298 L 237.007 108.723 237.014 55.638 C 237.018 26.441,236.973 2.556,236.915 2.559 C 236.856 2.562,224.074 10.878,208.511 21.038 M74.998 220.765 C 65.810 226.780,55.949 233.230,53.083 235.097 C 50.217 236.965,44.617 240.620,40.638 243.219 C 30.691 249.719,23.180 254.610,17.774 258.109 C 15.262 259.734,13.208 261.160,13.210 261.277 C 13.212 261.394,19.081 265.702,26.253 270.851 C 33.425 276.000,42.085 282.242,45.498 284.723 C 48.910 287.203,60.032 295.231,70.213 302.562 C 80.394 309.894,92.266 318.449,96.596 321.573 C 100.926 324.698,106.383 328.629,108.723 330.309 C 116.767 336.083,172.556 376.307,176.170 378.938 C 190.558 389.412,236.635 422.553,236.809 422.553 C 236.927 422.553,236.976 398.679,236.917 369.500 L 236.809 316.446 232.553 313.322 C 230.213 311.604,226.479 308.868,224.255 307.243 C 222.032 305.617,217.053 301.951,213.191 299.097 C 209.330 296.243,204.316 292.550,202.051 290.890 C 196.464 286.797,173.850 270.145,167.021 265.096 C 161.588 261.078,137.182 243.104,107.125 220.985 C 98.757 214.826,91.863 209.796,91.806 209.807 C 91.749 209.819,84.185 214.749,74.998 220.765 " stroke="none" fill="#ffffff" fill-rule="evenodd"></path><path id="path1" d="" stroke="none" fill="#005555" fill-rule="evenodd"></path><path id="path2" d="M234.236 2.204 C 223.772 9.017,220.090 11.405,219.015 12.075 C 217.905 12.767,217.159 12.786,208.802 12.336 C 195.036 11.594,176.666 12.909,163.191 15.601 C 160.149 16.209,156.734 16.864,155.602 17.057 C 151.304 17.788,134.950 22.703,130.692 24.544 C 129.434 25.087,128.155 25.532,127.850 25.532 C 127.546 25.532,125.845 26.202,124.072 27.021 C 122.298 27.840,120.757 28.511,120.647 28.511 C 119.976 28.511,108.536 34.072,104.043 36.583 C 102.404 37.498,100.106 38.763,98.936 39.393 C 97.766 40.024,96.267 40.993,95.606 41.546 C 94.944 42.100,94.234 42.553,94.028 42.553 C 93.674 42.553,86.759 47.115,82.553 50.123 C 70.717 58.588,55.836 72.497,46.718 83.617 C 44.224 86.660,41.644 89.802,40.985 90.600 C 37.312 95.049,29.047 107.551,25.205 114.468 C 23.376 117.761,18.077 128.262,17.466 129.805 C 17.145 130.614,16.347 132.451,15.691 133.886 C 14.423 136.660,13.957 137.866,11.690 144.245 C 10.902 146.462,9.992 148.473,9.667 148.713 C 9.342 148.953,8.959 150.144,8.816 151.360 C 8.673 152.576,7.990 155.448,7.299 157.743 C -1.582 187.211,-2.641 225.367,4.543 257.021 C 8.399 274.012,13.595 288.486,21.194 303.404 C 24.966 310.809,26.761 314.091,27.495 314.927 C 27.820 315.297,28.085 315.761,28.085 315.960 C 28.085 316.308,28.645 317.197,32.912 323.617 C 35.527 327.553,39.473 333.121,41.064 335.121 C 47.340 343.012,51.837 348.088,58.044 354.286 C 64.170 360.403,67.489 363.411,75.532 370.136 C 76.486 370.934,84.102 376.547,86.895 378.511 C 90.003 380.696,96.943 385.050,98.833 386.000 C 99.826 386.499,100.933 387.166,101.294 387.481 C 102.104 388.191,119.386 396.817,120.851 397.242 C 121.436 397.413,123.104 398.103,124.557 398.776 C 126.010 399.449,127.551 400.000,127.982 400.000 C 128.413 400.000,128.948 400.157,129.170 400.348 C 130.664 401.633,149.960 407.536,155.745 408.477 C 157.032 408.686,159.234 409.147,160.638 409.501 C 173.792 412.819,201.398 414.426,216.326 412.744 L 219.673 412.367 222.765 414.694 C 224.466 415.974,225.989 417.021,226.151 417.021 C 226.312 417.021,226.738 417.315,227.097 417.674 C 227.654 418.232,229.983 419.930,233.788 422.553 C 234.297 422.904,235.395 423.718,236.227 424.362 C 238.702 426.276,238.694 426.297,238.820 417.553 L 238.936 409.574 241.915 409.018 C 246.268 408.206,254.538 406.061,258.936 404.605 C 261.043 403.907,263.498 403.156,264.394 402.936 C 266.626 402.385,275.891 398.688,283.191 395.433 C 286.830 393.810,296.384 388.909,300.658 386.471 C 302.617 385.354,306.192 383.091,310.162 380.454 C 312.124 379.151,314.028 377.894,314.395 377.660 C 314.761 377.426,316.483 376.181,318.221 374.894 C 319.958 373.606,321.788 372.270,322.286 371.925 C 333.425 364.194,355.037 341.746,363.390 329.231 C 364.201 328.016,365.206 326.650,365.624 326.196 C 366.041 325.743,366.383 325.144,366.383 324.865 C 366.383 324.587,366.669 324.122,367.019 323.832 C 367.368 323.542,368.240 322.322,368.957 321.120 C 369.673 319.919,370.851 317.979,371.575 316.809 C 374.117 312.699,379.462 302.720,381.490 298.298 C 385.460 289.638,385.957 288.505,385.957 288.122 C 385.957 287.909,386.628 286.169,387.447 284.255 C 388.266 282.341,388.936 280.572,388.936 280.324 C 388.936 280.076,389.490 278.321,390.167 276.426 C 392.708 269.307,397.020 252.858,397.023 250.271 C 397.023 249.654,397.402 247.203,397.864 244.824 C 399.694 235.398,400.000 230.803,400.000 212.767 C 400.000 203.276,399.811 193.887,399.579 191.904 C 398.369 181.527,394.935 164.055,392.807 157.447 C 392.317 155.926,391.651 153.723,391.327 152.553 C 390.799 150.647,389.134 145.904,386.397 138.511 C 385.877 137.106,385.015 135.000,384.480 133.830 C 383.946 132.660,382.681 129.883,381.669 127.660 C 379.406 122.690,374.272 113.034,372.916 111.199 C 372.365 110.454,371.908 109.688,371.900 109.496 C 371.891 109.305,370.886 107.591,369.666 105.686 C 359.914 90.466,350.715 79.371,336.521 65.707 C 333.896 63.179,324.158 55.008,320.962 52.649 C 320.082 52.000,318.395 50.756,317.214 49.883 C 316.032 49.011,314.769 48.106,314.407 47.872 C 314.045 47.638,312.084 46.346,310.051 45.000 C 308.017 43.654,306.231 42.553,306.083 42.553 C 305.934 42.553,305.509 42.281,305.140 41.949 C 304.507 41.380,302.355 40.098,296.383 36.732 C 292.980 34.814,281.317 29.101,279.279 28.355 C 278.388 28.029,276.511 27.272,275.106 26.673 C 266.898 23.172,251.818 18.493,243.404 16.837 L 238.936 15.957 238.820 7.979 C 238.686 -1.284,238.995 -0.895,234.236 2.204 M237.014 55.638 L 237.007 108.723 222.091 118.298 C 213.887 123.564,204.802 129.404,201.901 131.277 C 184.582 142.456,164.089 155.659,158.641 159.149 C 155.170 161.372,145.583 167.541,137.336 172.858 C 92.004 202.079,76.238 212.234,71.064 215.543 C 67.904 217.564,59.183 223.176,51.683 228.013 C 17.757 249.896,11.892 253.653,11.285 253.885 C 10.709 254.107,10.638 248.493,10.638 202.172 L 10.638 150.211 19.043 144.716 C 23.665 141.693,29.936 137.595,32.979 135.609 C 36.021 133.623,47.415 126.183,58.298 119.077 C 69.181 111.970,82.634 103.191,88.193 99.567 C 93.753 95.944,103.040 89.877,108.832 86.086 C 114.623 82.295,121.181 78.024,123.404 76.595 C 125.628 75.167,132.521 70.671,138.723 66.606 C 144.926 62.540,156.798 54.780,165.106 49.362 C 173.415 43.944,192.947 31.198,208.511 21.038 C 224.074 10.878,236.856 2.562,236.915 2.559 C 236.973 2.556,237.018 26.441,237.014 55.638 M107.125 220.985 C 137.182 243.104,161.588 261.078,167.021 265.096 C 173.850 270.145,196.464 286.797,202.051 290.890 C 204.316 292.550,209.330 296.243,213.191 299.097 C 217.053 301.951,222.032 305.617,224.255 307.243 C 226.479 308.868,230.213 311.604,232.553 313.322 L 236.809 316.446 236.917 369.500 C 236.976 398.679,236.927 422.553,236.809 422.553 C 236.635 422.553,190.558 389.412,176.170 378.938 C 172.556 376.307,116.767 336.083,108.723 330.309 C 106.383 328.629,100.926 324.698,96.596 321.573 C 92.266 318.449,80.394 309.894,70.213 302.562 C 60.032 295.231,48.910 287.203,45.498 284.723 C 42.085 282.242,33.425 276.000,26.253 270.851 C 19.081 265.702,13.212 261.394,13.210 261.277 C 13.208 261.160,15.262 259.734,17.774 258.109 C 23.180 254.610,30.691 249.719,40.638 243.219 C 44.617 240.620,50.217 236.965,53.083 235.097 C 55.949 233.230,65.810 226.780,74.998 220.765 C 84.185 214.749,91.749 209.819,91.806 209.807 C 91.863 209.796,98.757 214.826,107.125 220.985 " stroke="none" fill="#2e98bd" fill-rule="evenodd"></path><path id="path3" d="" stroke="none" fill="#00ffff" fill-rule="evenodd"></path><path id="path4" d="" stroke="none" fill="#0000ff" fill-rule="evenodd"></path></g></svg>
